<?xml version="1.0" standalone="no"?><!DOCTYPE svg PUBLIC "-//W3C//DTD SVG 1.1//EN" "http://www.w3.org/Graphics/SVG/1.1/DTD/svg11.dtd"><svg t="1727444244268" class="icon" viewBox="0 0 1024 1024" version="1.1" xmlns="http://www.w3.org/2000/svg" p-id="4245" xmlns:xlink="http://www.w3.org/1999/xlink" width="200" height="200"><path d="M801.600259 831.175343c-5.04183 0-10.627035-0.370437-16.601096-1.103124-6.011924-0.735757-12.139481-1.947352-18.209734-3.603061-6.104021-1.664919-12.107759-3.854794-17.844413-6.506181-5.92392-2.741437-11.231809-6.141884-15.775288-10.109242-4.66116-4.071735-8.458649-8.868995-11.285021-14.260795-2.920516-5.575995-4.402263-11.990079-4.402263-19.065218 0-4.018523 0.865717-8.002254 2.571568-11.840676 1.654686-3.724835 3.954055-7.141654 6.834662-10.156314 2.913353-3.053546 6.4192-5.547343 10.41828-7.40669 4.095271-1.906419 8.584516-2.874467 13.34289-2.874467l3.480264 0 1.278109 3.237741c3.347235 8.479115 7.482415 15.832594 12.288884 21.853727 4.813632 6.030343 10.119475 11.062963 15.770172 14.956643 5.621021 3.873214 11.644201 6.776334 17.898649 8.627495 6.303566 1.863441 12.655228 2.807952 18.874883 2.807952 8.203846 0 15.980973-1.38044 23.119557-4.103458 7.197936-2.747577 13.826913-6.590092 19.700691-11.42112 5.943362-4.89038 11.299347-10.728342 15.919575-17.349133 4.672416-6.702656 8.671497-14.102183 11.883655-21.991874 3.234671-7.943926 5.737678-16.376992 7.440459-25.062815 1.703805-8.686846 2.567475-17.584494 2.567475-26.444279 0-13.095249-1.966795-25.435299-5.845125-36.678364-3.855818-11.172457-9.362228-21.011546-16.368806-29.243021-6.949272-8.162914-15.425318-14.651698-25.192775-19.287275-9.736758-4.621251-20.794605-6.963599-32.868595-6.963599-8.762571 0-18.075681 1.232061-27.684526 3.66139-9.67229 2.448772-20.202111 6.473435-31.29475 11.963473l-3.947915 1.953492-11.918447-17.10047 0.406253-2.119267c4.330632-22.602787 7.863085-47.239907 10.497075-73.228815 2.638083-26.02984 4.632507-53.233412 5.92699-80.854493l0.240477-5.1503 5.148253 0.280386c6.499018 0.355087 12.704346 0.681522 18.615986 0.975211 5.780657 0.290619 11.602246 0.528026 17.304108 0.706081 5.833869 0.182149 11.490705 0.330528 16.812921 0.442068 5.447059 0.116657 11.20418 0.176009 17.113773 0.176009 16.688077 0 33.463136-0.327458 49.863664-0.972141 16.3422-0.639566 33.698496-2.091638 51.585889-4.314259l3.360538-0.417509 1.697665 2.931772c4.344958 7.503904 6.547113 14.638395 6.547113 21.204951 0 7.876388-3.202948 18.782785-18.459421 26.015513-10.995425 5.215792-26.278503 7.861038-45.420469 7.861038-13.294794 0-28.471448-1.059122-45.108361-3.146667-14.997576-1.87879-31.692816-4.599761-49.695842-8.095375-0.579191 6.719028-1.220804 13.927197-1.913583 21.50478-0.88209 9.649777-1.933025 19.581987-3.122107 29.523407-1.188058 9.91379-2.509147 19.674085-3.927449 29.009707-0.8913 5.867638-1.861394 11.43954-2.90005 16.657378 10.454096-4.344958 20.670785-7.720845 30.470989-10.064216 12.467963-2.978844 24.783453-4.490268 36.606733-4.490268 15.815197 0 30.615275 2.592035 43.989887 7.705496 13.446243 5.143137 25.176402 12.570293 34.865065 22.074761 9.688663 9.501398 17.366529 21.13332 22.817682 34.571377 5.432733 13.400195 8.18645 28.471448 8.18645 44.797275 0 12.42703-1.571798 25.169239-4.672416 37.873586-3.094478 12.68388-7.682983 25.060769-13.633508 36.785811-5.955642 11.726066-13.438057 22.905686-22.23849 33.226752-8.853645 10.376325-19.155269 19.50217-30.619368 27.125801-11.473309 7.626701-24.420179 13.748119-38.482453 18.194384C833.5049 828.91486 818.024324 831.175343 801.600259 831.175343z" p-id="4246" fill="#ffffff"></path><path d="M409.467277 878.411157l-82.906222-8.577353-2.845815-20.940938c-3.725858-27.430746-8.321526-57.265238-13.665231-88.673575-5.186116-30.466895-10.911514-62.139246-17.011442-94.129844-6.05081-31.738865-12.435217-63.321164-18.974144-93.868901-6.392594-29.842679-13.08604-59.562561-19.891026-88.326675-6.404873-27.056216-12.861936-53.015448-19.190061-77.149101-6.095835-23.233144-11.789511-43.434232-16.923438-60.037375-5.358031-16.535605-10.360975-29.962405-14.869662-39.910988-4.927219-10.836813-9.079796-16.742313-11.69639-19.783579-2.416026-2.813069-4.715395-4.630461-6.831592-5.402033-3.515057-1.267876-7.919367-1.927909-12.989849-1.927909-7.761778 0-16.308431 0.884137-25.399483 2.628874-10.289344 1.976004-23.010063 4.743024-37.794791 8.220219l-26.843368 6.312776-17.025769-81.759095 21.840424-7.967462c18.412348-6.713912 36.298717-12.881378 53.166897-18.328437 17.024745-5.486968 33.403784-10.330276 48.696072-14.396895 15.202237-4.02057 28.886911-7.158027 40.704051-9.332553 13.08604-2.409886 23.405059-3.580548 31.54546-3.580548 11.520381 0 22.427802 2.128477 32.417317 6.325056 10.299577 4.370541 19.942191 11.45489 28.749788 21.097504 8.127098 8.931416 15.362896 20.123316 22.157649 34.253128 6.193049 12.879332 12.180414 28.492938 18.300808 47.734164 3.923356 12.139481 8.462742 27.542286 13.84124 46.976918 5.241374 19.035542 10.779507 40.97932 16.473183 65.25726 5.693676 24.298406 11.632945 50.685379 17.653055 78.437443 6.086625 28.04473 12.043291 57.529251 17.703197 87.635943 5.658883 30.091342 11.015891 61.072961 15.923668 92.089371 1.124614 7.15291 2.218528 14.289448 3.275603 21.406542 1.641383-2.52552 3.281743-5.051039 4.916986-7.580652 14.83487-22.918989 29.114085-46.172599 42.444694-69.122287 13.374612-22.99676 26.016537-46.589085 37.58399-70.13536 11.350512-23.124673 21.466917-46.470381 30.066783-69.379137 8.402367-22.425755 15.06716-44.675502 19.803022-66.11786 4.595668-20.810978 6.92676-41.147142 6.92676-60.443627 0-23.084765-4.067642-45.000913-12.090363-65.141626-7.640004-19.125593-20.555152-35.700083-39.479153-50.6424l-16.58677-13.102413 20.073174-43.699268 15.122419-1.672082c5.702885-0.630357 11.383258-1.12052 16.877389-1.456165 6.075369-0.337691 11.361769-0.497327 16.308431-0.497327 46.476521 0 82.821287 11.838629 108.023272 35.18536 25.777083 23.879873 38.847773 56.68093 38.847773 97.491405 0 27.933189-5.848195 59.719126-17.382902 94.472652-11.001565 33.144888-25.684986 68.326155-43.646056 104.565521-17.702174 35.742039-38.110993 72.689532-60.659545 109.803825-22.273283 36.665061-45.394886 72.707952-68.728314 107.125833-23.243377 34.248012-46.173622 66.75538-68.154239 96.623641-22.160719 30.077016-41.908482 56.223512-58.697867 77.720106L409.467277 878.411157z" p-id="4247" fill="#ffffff"></path></svg>